<?xml version="1.0" encoding="UTF-8"?>
<svg width="76px" height="76px" viewBox="0 0 76 76" version="1.1" xmlns="http://www.w3.org/2000/svg" xmlns:xlink="http://www.w3.org/1999/xlink">
    <!-- Generator: Sketch 63.1 (92452) - https://sketch.com -->
    <title>Logo/SansBaseline</title>
    <desc>Created with Sketch.</desc>
    <defs>
        <polygon id="path-1" points="0 0.0511198419 75.6505781 0.0511198419 75.6505781 75.703125 0 75.703125"></polygon>
    </defs>
    <g id="Symbols" stroke="none" stroke-width="1" fill="none" fill-rule="evenodd">
        <g id="Organisme/Desktop/Footer" transform="translate(-602.000000, -38.000000)">
            <g id="Logo/SansBaseline" transform="translate(602.000000, 38.000000)">
                <g id="Page-1" transform="translate(0.296875, 0.000000)">
                    <path d="M73.5455859,38.1318719 C73.5405391,57.8589188 57.5428359,73.851575 37.8107422,73.8435624 C18.0899297,73.8435624 2.10142969,57.8399187 2.10528836,38.1158406 C2.10944531,18.3873094 18.1080391,2.39524687 37.8338984,2.4023695 C57.5656953,2.40771562 73.5485547,18.4057156 73.5455859,38.1318719" id="Fill-1" fill="#BDD642"></path>
                    <g id="Group-5" transform="translate(0.000000, 0.245813)">
                        <mask id="mask-2" fill="white">
                            <use xlink:href="#path-1"></use>
                        </mask>
                        <g id="Clip-4"></g>
                        <path d="M71.4402078,37.8854656 C71.4402078,38.0398406 71.4351609,38.1930281 71.4333797,38.3462156 L61.1623953,38.3432469 C63.1475984,37.8424187 64.1519266,36.2437469 64.1519266,33.5703875 L64.1519266,27.1961844 C64.1548953,25.4781688 63.7357078,24.1894344 62.9068328,23.368575 C62.1593016,22.6269812 61.0665047,22.2514344 59.6554578,22.2514344 L55.5182078,22.2514344 L55.4306297,22.2514344 L55.4264734,38.3420594 L52.8982859,38.3411687 L52.9060047,22.2514344 L50.2145359,22.2454969 L50.2145359,22.2894344 C50.2145359,22.2894344 50.2068172,30.6993094 50.2056297,31.1582781 C50.0465047,30.7260281 46.9141766,22.2469812 46.9141766,22.2469812 L44.1817391,22.2469812 L44.1778797,38.3390906 L42.7175516,38.3390906 L39.7289109,22.2469812 L39.6918016,22.2469812 L36.1198016,22.2469812 L33.1219578,38.3367156 L32.1303953,38.3367156 C31.7783016,37.2454031 29.8400047,31.2411062 29.8204109,31.1769812 C30.7110359,30.7488875 31.7542547,29.6902312 31.7542547,27.0789187 C31.7542547,23.7387781 30.2722547,22.2469812 26.9469578,22.2425281 L23.0279109,22.2425281 L22.9406297,22.2425281 L22.9406297,38.3352312 L20.2764734,38.3331531 L20.2812234,30.1735438 L15.5365672,30.1735438 L15.5392391,32.531325 L17.3160359,32.531325 L17.3160359,34.0044187 C17.3118797,35.5642 16.9205984,36.1437 15.8714422,36.1437 C15.0413797,36.1437 14.6548484,35.6345594 14.6548484,34.5399812 L14.6548484,26.2702312 C14.6548484,25.159325 15.0425672,24.5970437 15.8058328,24.5970437 C16.7852234,24.5970437 17.3160359,25.0664031 17.3160359,27.543825 L17.3160359,27.6299187 L20.1494109,27.6299187 L20.1494109,26.517825 C20.1494109,23.7856844 18.4717703,22.0198719 15.8755984,22.0198719 C13.3340516,22.0198719 11.6911453,23.6713875 11.6911453,26.2262937 L11.6911453,34.5147469 C11.6911453,36.3366687 12.4541141,37.7002156 13.7318641,38.3316687 L4.21672344,38.3301844 C4.21464531,38.1761062 4.21048906,38.0229187 4.21048906,37.8700281 C4.21256719,28.8895594 7.71242656,20.4482156 14.0649578,14.0992469 C20.4154109,7.75235625 28.8567547,4.2581375 37.8336609,4.26229005 C56.3645984,4.2676375 71.4402078,19.3459187 71.4402078,37.8780437 L71.4402078,37.8854656 Z M58.3919578,36.0659372 L58.3919578,24.6967938 L59.2742703,24.6967938 C60.7084734,24.6967938 61.1923797,25.2433406 61.1923797,26.8613094 L61.1923797,33.90645 C61.1923797,34.7932156 61.0472078,35.33145 60.7224266,35.6526687 C60.4303016,35.9406375 59.9820203,36.0677 59.2701141,36.0659372 L58.3919578,36.0659372 Z M46.8740984,38.3402781 L46.8740984,28.7449813 C47.0207547,29.16595 49.8188016,37.0931063 50.2608484,38.3411688 L46.8740984,38.3402781 Z M36.8976141,32.3629969 C36.9127547,32.2715594 37.0757391,31.2568406 37.0757391,31.2568406 C37.0757391,31.2568406 37.8458328,26.4477625 37.9239109,25.9599969 C38.0028797,26.4522156 38.9258641,32.2685906 38.9404109,32.3629969 L36.8976141,32.3629969 Z M35.9930359,38.3370125 C36.0901141,37.6411375 36.4585359,35.0066687 36.4680359,34.9434344 L39.3708797,34.9434344 C39.3788953,35.0066687 39.7499891,37.6435125 39.8479578,38.3390906 L35.9930359,38.3370125 Z M25.9052234,29.4646062 L25.9052234,24.6878875 C25.9853797,24.6878875 26.8095047,24.6920437 26.8095047,24.6920437 C28.3087234,24.6920437 28.7896609,25.27095 28.7896609,27.0789187 C28.7896609,28.8854031 28.3072391,29.4646062 26.8059422,29.4646062 L25.9052234,29.4646062 Z M27.1948484,31.8505906 C27.2129578,31.9111531 28.8104422,37.3029969 29.1159266,38.3355281 L25.9052234,38.3352313 L25.9052234,31.9084813 C26.3535047,31.9055125 26.8575984,31.8832469 27.1948484,31.8505906 L27.1948484,31.8505906 Z M17.1863016,38.3325594 C17.5948016,38.103075 17.9418484,37.7785906 18.2975047,37.371575 C18.3334266,37.4555906 18.5822078,38.0380594 18.7080828,38.3331531 L17.1863016,38.3325594 Z M64.5800203,11.1370281 C57.4366141,3.99154375 47.9401766,0.054090625 37.8348484,0.0511198419 C27.7336766,0.04785625 18.2345672,3.97877813 11.0878953,11.1209969 C3.93944219,18.2644031 0.0019890625,27.7638094 -8.96670506e-05,37.8691375 C-0.0018703125,47.9747625 3.93261406,57.4780281 11.0789891,64.6261844 C18.2203172,71.7695906 27.7146766,75.7031868 37.8108016,75.7031868 C47.9143484,75.7067469 57.4161297,71.7755281 64.5619109,64.6336062 C71.7100672,57.4899031 75.6478172,47.9919812 75.6507865,37.8860594 C75.6525672,27.7834031 71.7213484,18.2837 64.5800203,11.1370281 L64.5800203,11.1370281 Z" id="Fill-3" fill="#ED2D2F" mask="url(#mask-2)"></path>
                    </g>
                    <polygon id="Fill-6" fill="#FEFEFE" points="19.9913844 38.5719594 12.0458219 38.5719594 12.0458219 55.1334281 15.1256031 55.1334281 15.1256031 47.9199594 18.8677125 47.9199594 18.8677125 45.2011781 15.1256031 45.2011781 15.1256031 41.2859906 20.1315094 41.2859906 20.1315094 38.5719594"></polygon>
                    <path d="M27.1344938,41.1503484 C28.6159,41.1503484 29.0668531,41.7034266 29.0668531,43.5158484 C29.0668531,45.3250047 28.6159,45.8765984 27.1344938,45.8765984 L26.2833531,45.8765984 L26.2833531,41.1503484 L27.1344938,41.1503484 Z M23.3442906,38.5719891 L23.2047594,38.5719891 L23.2047594,55.1334578 L26.2833531,55.1334578 L26.2833531,48.4585203 C26.7150094,48.4534734 27.1629938,48.4326922 27.4856969,48.3994422 C27.5486344,48.6134891 29.46615,55.1334578 29.46615,55.1334578 L32.6050094,55.1334578 C32.6050094,55.1334578 30.2849312,47.9131609 30.2130875,47.6899109 C31.1206344,47.2374734 32.14515,46.1452703 32.14515,43.5158484 C32.14515,40.0979266 30.6405875,38.5719891 27.2663062,38.5719891 L23.3442906,38.5719891 Z" id="Fill-8" fill="#FEFEFE"></path>
                    <path d="M40.0010266,42.2671031 L41.0302922,49.048025 L38.9696828,49.048025 L40.0010266,42.2671031 Z M41.7324016,38.5719 L38.1455578,38.5719 L35.0927922,55.1333688 L38.0398703,55.1333688 L38.5858234,51.5269313 L41.4082141,51.5269313 L41.9639641,55.1333688 L44.8967922,55.1333688 L41.8484797,38.5719 L41.7324016,38.5719 Z" id="Fill-10" fill="#FEFEFE"></path>
                    <polygon id="Fill-12" fill="#FEFEFE" points="51.4069344 38.5719594 48.472325 38.5719594 48.472325 55.1334281 51.5467625 55.1334281 51.5467625 38.5719594"></polygon>
                    <path d="M55.4875109,42.6115375 C55.4875109,45.2267094 57.2298703,46.6808031 58.7691672,47.9636 C60.0552297,49.0356156 61.1664328,49.9624594 61.1664328,51.35985 C61.1664328,52.2178187 60.6270109,52.7091469 59.6865109,52.7091469 C58.8128078,52.7091469 58.2558703,51.860975 58.1590891,50.3816469 L58.1486984,50.2314281 L55.2054797,50.6526937 L55.2114172,50.7785688 C55.3233391,53.0930063 56.7094484,55.4285219 59.5502453,55.4285219 C62.3628391,55.4285219 64.1078703,53.7743344 64.1078703,51.1107719 C64.1078703,48.5811 62.3114797,47.0533813 60.7282453,45.7061625 C59.4932453,44.6567094 58.4259797,43.7488656 58.4259797,42.5857094 C58.4259797,41.6434281 58.8739641,41.1244906 59.6865109,41.1244906 C60.0501828,41.1244906 60.9105266,41.287475 61.0337297,42.7985688 L61.0456047,42.94285 L63.9858547,42.6165844 L63.9719016,42.4785375 C63.7029328,39.9681625 62.1636359,38.408975 59.9551828,38.408975 C57.1146828,38.408975 55.4875109,39.9417406 55.4875109,42.6115375" id="Fill-14" fill="#FEFEFE"></path>
                </g>
            </g>
        </g>
    </g>
</svg>